<svg width="724" height="600" viewBox="0 0 724 600" fill="none" xmlns="http://www.w3.org/2000/svg">
<mask id="path-1-outside-1_9_14" maskUnits="userSpaceOnUse" x="4" y="6" width="715" height="589" fill="black">
<rect fill="white" x="4" y="6" width="715" height="589"/>
<path fill-rule="evenodd" clip-rule="evenodd" d="M342.136 44C261.712 44 208.006 104.057 196.911 145.135C184.849 189.81 198.174 220.703 198.743 221.991L208.852 244.785L184.138 247.625C183.523 247.697 116.956 255.935 77.6195 309.594L76.5353 310.993C65.1735 325.193 29.5507 376.591 48.4072 441.489C72.3997 524.103 140.372 562.404 250.385 555.279C440.494 543.001 620.887 393.756 663.879 267.484L663.886 267.464C674.822 235.332 693.121 181.563 665.942 140.562C645.833 110.233 606.042 92.4373 566.99 96.2702C529.724 99.9365 499.605 131.344 499.31 131.657L480.818 151.185L469.521 126.799C467.982 123.525 430.324 45.2455 344.448 44.0182C343.676 44.0073 342.901 44 342.136 44Z"/>
</mask>
<path fill-rule="evenodd" clip-rule="evenodd" d="M342.136 44C261.712 44 208.006 104.057 196.911 145.135C184.849 189.81 198.174 220.703 198.743 221.991L208.852 244.785L184.138 247.625C183.523 247.697 116.956 255.935 77.6195 309.594L76.5353 310.993C65.1735 325.193 29.5507 376.591 48.4072 441.489C72.3997 524.103 140.372 562.404 250.385 555.279C440.494 543.001 620.887 393.756 663.879 267.484L663.886 267.464C674.822 235.332 693.121 181.563 665.942 140.562C645.833 110.233 606.042 92.4373 566.99 96.2702C529.724 99.9365 499.605 131.344 499.31 131.657L480.818 151.185L469.521 126.799C467.982 123.525 430.324 45.2455 344.448 44.0182C343.676 44.0073 342.901 44 342.136 44Z" fill="url(#paint0_linear_9_14)"/>
<path d="M196.911 145.135L160.226 135.226L160.225 135.23L196.911 145.135ZM198.743 221.991L163.982 237.343L163.994 237.37L164.006 237.396L198.743 221.991ZM208.852 244.785L213.19 282.537L264.546 276.636L243.589 229.38L208.852 244.785ZM184.138 247.625L179.8 209.874L179.763 209.878L179.725 209.883L184.138 247.625ZM77.6195 309.594L107.652 332.877L107.965 332.473L108.267 332.061L77.6195 309.594ZM76.5353 310.993L106.207 334.733L106.389 334.505L106.567 334.275L76.5353 310.993ZM48.4072 441.489L84.8994 430.891L84.8981 430.887L48.4072 441.489ZM250.385 555.279L247.936 517.358L247.93 517.359L250.385 555.279ZM663.879 267.484L627.962 255.077L627.934 255.157L627.907 255.237L663.879 267.484ZM663.886 267.464L699.803 279.872L699.832 279.79L699.86 279.707L663.886 267.464ZM665.942 140.562L697.615 119.566L697.613 119.563L665.942 140.562ZM566.99 96.2702L563.278 58.4519L563.269 58.4528L566.99 96.2702ZM499.31 131.657L526.903 157.785L526.943 157.742L526.983 157.7L499.31 131.657ZM480.818 151.185L446.339 167.158L469.889 217.995L508.411 177.313L480.818 151.185ZM469.521 126.799L504.001 110.826L503.956 110.729L503.911 110.632L469.521 126.799ZM344.448 44.0182L344.991 6.02207L344.986 6.02199L344.448 44.0182ZM233.596 155.044C236.712 143.508 247.673 124.712 267.448 108.688C286.513 93.2398 311.8 82 342.136 82V6C292.047 6 250.27 24.7889 219.602 49.6391C189.645 73.9131 168.205 105.684 160.226 135.226L233.596 155.044ZM233.503 206.639C234.941 209.893 224.612 188.321 233.598 155.04L160.225 135.23C145.087 191.3 161.407 231.512 163.982 237.343L233.503 206.639ZM243.589 229.38L233.48 206.585L164.006 237.396L174.115 260.191L243.589 229.38ZM188.476 285.377L213.19 282.537L204.514 207.034L179.8 209.874L188.476 285.377ZM108.267 332.061C137.491 292.195 189.389 285.27 188.552 285.368L179.725 209.883C177.657 210.124 96.4198 219.676 46.9724 287.127L108.267 332.061ZM106.567 334.275L107.652 332.877L47.5873 286.312L46.5031 287.71L106.567 334.275ZM84.8981 430.887C71.4269 384.523 96.8732 346.398 106.207 334.733L46.8638 287.252C33.4739 303.988 -12.3255 368.66 11.9163 452.092L84.8981 430.887ZM247.93 517.359C197.337 520.635 160.956 513.107 135.791 498.929C111.67 485.339 94.4461 463.763 84.8994 430.891L11.915 452.087C26.3608 501.829 55.1195 540.71 98.4857 565.143C140.809 588.988 193.42 597.048 252.841 593.2L247.93 517.359ZM627.907 255.237C609.695 308.728 560.049 371.812 489.778 423.524C420.039 474.845 334.221 511.786 247.936 517.358L252.834 593.2C356.658 586.495 456.091 542.674 534.824 484.736C613.025 427.188 675.072 352.513 699.851 279.732L627.907 255.237ZM627.969 255.057L627.962 255.077L699.796 279.892L699.803 279.872L627.969 255.057ZM634.269 161.558C641.114 171.884 643.433 185.449 641.446 203.084C639.429 220.991 633.518 238.749 627.912 255.221L699.86 279.707C705.189 264.047 713.897 238.855 716.968 211.593C720.07 184.061 717.949 150.241 697.615 119.566L634.269 161.558ZM570.702 134.088C597.133 131.494 622.671 144.065 634.271 161.561L697.613 119.563C668.995 76.4009 614.951 53.3803 563.278 58.4519L570.702 134.088ZM526.983 157.7C525.855 158.898 531.389 152.972 540.717 146.601C550.405 139.984 561.062 135.037 570.71 134.088L563.269 58.4528C535.652 61.1698 512.616 73.7595 497.854 83.8412C482.733 94.1685 473.06 104.102 471.637 105.614L526.983 157.7ZM508.411 177.313L526.903 157.785L471.717 105.53L453.226 125.058L508.411 177.313ZM435.041 142.772L446.339 167.158L515.298 135.212L504.001 110.826L435.041 142.772ZM343.905 82.0143C374.302 82.4487 396.312 96.2415 411.88 111.649C427.811 127.417 435.338 143.404 435.132 142.966L503.911 110.632C502.165 106.919 490.093 82.1299 465.342 57.6325C440.227 32.7754 400.47 6.81495 344.991 6.02207L343.905 82.0143ZM342.136 82C342.667 82 343.254 82.0051 343.91 82.0144L344.986 6.02199C344.099 6.00944 343.134 6 342.136 6V82Z" fill="white" mask="url(#path-1-outside-1_9_14)"/>
<path d="M319.576 172.158C256.971 192.64 222.578 259.988 242.94 322.227L254.13 356.429L256.373 363.285C260.084 374.628 272.33 380.791 283.74 377.058L304.39 370.302L287.599 318.979C283.956 307.843 272.085 301.756 260.857 305.068C250.799 257.095 278.322 208.381 326.293 192.687C374.263 176.993 425.257 200.018 445.499 244.66C434.484 248.625 428.507 260.551 432.15 271.687L448.941 323.011L469.592 316.255C481.001 312.522 487.236 300.312 483.525 288.969L473.451 258.175L470.093 247.911C449.73 185.672 382.181 151.676 319.576 172.158ZM455.658 343.54L459.016 353.804C462.766 365.267 456.612 377.318 445.082 381.09L411.304 392.141C408.475 389.617 405.027 387.88 401.306 387.103C397.584 386.326 393.719 386.537 390.098 387.715C384.622 389.507 380.077 393.388 377.464 398.505C374.851 403.622 374.383 409.556 376.165 415C377.946 420.445 381.83 424.955 386.962 427.538C392.094 430.121 398.054 430.565 403.531 428.773C407.152 427.586 410.399 425.472 412.946 422.644C415.493 419.816 417.25 416.374 418.04 412.663L451.799 401.619C474.486 394.196 487.045 369.603 479.666 347.048L476.308 336.784L455.658 343.54Z" fill="white"/>
<defs>
<linearGradient id="paint0_linear_9_14" x1="8.53408" y1="589.954" x2="669.939" y2="31.9258" gradientUnits="userSpaceOnUse">
<stop stop-color="#31A14A"/>
<stop offset="1" stop-color="#147391"/>
</linearGradient>
</defs>
</svg>
